# xmcd CD database file
#
# Track frame offsets:
#	150
#	13196
#	27050
#	39789
#	57979
#	75099
#	94494
#	105513
#	122181
#	137523
#	155949
#	171835
#	193310
#
# Disc length: 2802 seconds
#
# Revision: 0
# Processed by: cddbd v1.5.2PL0 Copyright (c) Steve Scherf et al.
# Submitted via: CDex 1.70beta2
#
DISCID=a50af00d
DTITLE=The Wildcats Dance Band - Let's Dance Volume 1
DYEAR=2001
DGENRE=Jazz
TTITLE0=South
TTITLE1=Blue Moon
TTITLE2=Kansas City
TTITLE3=Tennessee Waltz
TTITLE4=Hey Good Lookin'
TTITLE5=Spanich Eyes
TTITLE6=Cute
TTITLE7=Sentimental Journey
TTITLE8=In the Mood
TTITLE9=Unforgettable
TTITLE10=Alley Cat - Ja-Da
TTITLE11=Crazy
TTITLE12=A Closer Walk
EXTD=YEAR: 2001
EXTT0=
EXTT1=
EXTT2=
EXTT3=
EXTT4=
EXTT5=
EXTT6=
EXTT7=
EXTT8=
EXTT9=
EXTT10=
EXTT11=
EXTT12=
PLAYORDER=
